<svg xmlns="http://www.w3.org/2000/svg" width="50.541019662496836" height="48.16525305762879"><polygon stroke="black" stroke-width="0.5" points="40.27050983124842 47.16525305762879 30.270509831248418 47.16525305762879 27.22050983124842 43.03610729621527 37.27050983124842 43.03610729621527" stroke-linejoin="round" fill="#777"/><polygon stroke="black" stroke-width="0.5" points="30.270509831248418 47.16525305762879 20.27050983124842 47.16525305762879 23.320509831248422 43.03610729621527 27.22050983124842 43.03610729621527" stroke-linejoin="round" fill="#777"/><polygon stroke="black" stroke-width="0.5" points="20.27050983124842 47.16525305762879 10.270509831248422 47.16525305762879 13.270509831248422 43.03610729621527 23.320509831248422 43.03610729621527" stroke-linejoin="round" fill="#777"/><polygon stroke="black" stroke-width="0.5" points="10.270509831248422 47.16525305762879 7.180339887498949 37.65468789467726 10.164889037780199 33.47798930744898 13.270509831248422 43.03610729621527" stroke-linejoin="round" fill="#222"/><polygon stroke="black" stroke-width="0.5" points="7.180339887498949 37.65468789467726 4.090169943749473 28.144122731725727 8.959722759717906 29.76886889389788 10.164889037780199 33.47798930744898" stroke-linejoin="round" fill="#222"/><polygon stroke="black" stroke-width="0.5" points="4.090169943749473 28.144122731725727 1.0 18.63355756877419 5.854101966249683 20.21075090513159 8.959722759717906 29.76886889389788" stroke-linejoin="round" fill="#222"/><polygon stroke="black" stroke-width="0.5" points="1.0 18.63355756877419 9.090169943749473 12.75570504584946 13.984722759717902 14.303509119592237 5.854101966249683 20.21075090513159" stroke-linejoin="round" fill="#777"/><polygon stroke="black" stroke-width="0.5" points="9.090169943749473 12.75570504584946 17.180339887498942 6.87785252292473 17.139889037780193 12.011146635651592 13.984722759717902 14.303509119592237" stroke-linejoin="round" fill="#777"/><polygon stroke="black" stroke-width="0.5" points="17.180339887498942 6.87785252292473 25.270509831248415 1.0 25.270509831248415 6.103904850112237 17.139889037780193 12.011146635651592" stroke-linejoin="round" fill="#777"/><polygon stroke="black" stroke-width="0.5" points="25.270509831248415 1.0 33.36067977499789 6.8778525229247265 33.401130624716636 12.011146635651588 25.270509831248415 6.103904850112237" stroke-linejoin="round" fill="#777"/><polygon stroke="black" stroke-width="0.5" points="33.36067977499789 6.8778525229247265 41.450849718747364 12.755705045849455 36.556296902778925 14.303509119592231 33.401130624716636 12.011146635651588" stroke-linejoin="round" fill="#777"/><polygon stroke="black" stroke-width="0.5" points="41.450849718747364 12.755705045849455 49.541019662496836 18.633557568774183 44.68691769624715 20.210750905131583 36.556296902778925 14.303509119592231" stroke-linejoin="round" fill="#777"/><polygon stroke="black" stroke-width="0.5" points="49.541019662496836 18.633557568774183 46.450849718747364 28.14412273172572 41.58129690277893 29.768868893897878 44.68691769624715 20.210750905131583" stroke-linejoin="round" fill="#777"/><polygon stroke="black" stroke-width="0.5" points="46.450849718747364 28.14412273172572 43.36067977499789 37.65468789467725 40.37613062471664 33.47798930744898 41.58129690277893 29.768868893897878" stroke-linejoin="round" fill="#222"/><polygon stroke="black" stroke-width="0.5" points="43.36067977499789 37.65468789467725 40.27050983124842 47.16525305762879 37.27050983124842 43.03610729621527 40.37613062471664 33.47798930744898" stroke-linejoin="round" fill="#777"/><polygon stroke="black" stroke-width="0.5" points="37.27050983124842 43.03610729621527 27.22050983124842 43.03610729621527 30.270509831248418 33.40143385291706 40.37613062471664 33.47798930744898" stroke-linejoin="round" fill="#222"/><polygon stroke="black" stroke-width="0.5" points="27.22050983124842 43.03610729621527 23.320509831248422 43.03610729621527 20.270509831248418 33.40143385291706 30.270509831248418 33.40143385291706" stroke-linejoin="round" fill="#222"/><polygon stroke="black" stroke-width="0.5" points="13.270509831248422 43.03610729621527 10.164889037780199 33.47798930744898 20.270509831248418 33.40143385291706 23.320509831248422 43.03610729621527" stroke-linejoin="round" fill="#777"/><polygon stroke="black" stroke-width="0.5" points="10.164889037780199 33.47798930744898 8.959722759717906 29.76886889389788 17.180339887498945 23.890868689965522 20.270509831248418 33.40143385291706" stroke-linejoin="round" fill="#777"/><polygon stroke="black" stroke-width="0.5" points="5.854101966249683 20.21075090513159 13.984722759717902 14.303509119592237 17.180339887498945 23.890868689965522 8.959722759717906 29.76886889389788" stroke-linejoin="round" fill="#777"/><polygon stroke="black" stroke-width="0.5" points="13.984722759717902 14.303509119592237 17.139889037780193 12.011146635651592 25.270509831248418 18.01301616704079 17.180339887498945 23.890868689965522" stroke-linejoin="round" fill="#222"/><polygon stroke="black" stroke-width="0.5" points="25.270509831248415 6.103904850112237 33.401130624716636 12.011146635651588 25.270509831248418 18.01301616704079 17.139889037780193 12.011146635651592" stroke-linejoin="round" fill="#222"/><polygon stroke="black" stroke-width="0.5" points="33.401130624716636 12.011146635651588 36.556296902778925 14.303509119592231 33.36067977499789 23.890868689965522 25.270509831248418 18.01301616704079" stroke-linejoin="round" fill="#222"/><polygon stroke="black" stroke-width="0.5" points="44.68691769624715 20.210750905131583 41.58129690277893 29.768868893897878 33.36067977499789 23.890868689965522 36.556296902778925 14.303509119592231" stroke-linejoin="round" fill="#222"/><polygon stroke="black" stroke-width="0.5" points="41.58129690277893 29.768868893897878 40.37613062471664 33.47798930744898 30.270509831248418 33.40143385291706 33.36067977499789 23.890868689965522" stroke-linejoin="round" fill="#777"/><polygon stroke="black" stroke-width="0.5" points="30.270509831248418 33.40143385291706 20.270509831248418 33.40143385291706 17.180339887498945 23.890868689965522 25.270509831248418 18.01301616704079 33.36067977499789 23.890868689965522" stroke-linejoin="round" fill="#222"/></svg>